<?xml version="1.0" encoding="UTF-8"?>
<svg width="78px" height="67px" viewBox="0 0 78 67" version="1.1" xmlns="http://www.w3.org/2000/svg" xmlns:xlink="http://www.w3.org/1999/xlink">
    <!-- Generator: Sketch 53.2 (72643) - https://sketchapp.com -->
    <title>entypo github</title>
    <desc>Created with Sketch.</desc>
    <g id="Page-1" stroke="none" stroke-width="1" fill="none" fill-rule="evenodd">
        <g id="iPhone-XS-Max" transform="translate(-51.000000, -44.000000)" fill="#222222" fill-rule="nonzero">
            <g id="Header">
                <g id="Logo" transform="translate(30.000000, 25.000000)">
                    <g id="entypo-github" transform="translate(21.000000, 19.000000)">
                        <path d="M52.5652174,34.1299145 C54.0347826,34.1299145 55.3065217,34.874359 56.3804348,36.3632479 C57.4543478,37.8521368 57.9913043,39.6846154 57.9913043,41.8606838 C57.9913043,44.0367521 57.4543478,45.8692308 56.3804348,47.3581197 C55.3065217,48.8470085 54.0347826,49.591453 52.5652174,49.591453 C50.9826087,49.591453 49.6543478,48.8470085 48.5804348,47.3581197 C47.5065217,45.8692308 46.9695652,44.0367521 46.9695652,41.8606838 C46.9695652,39.6846154 47.5065217,37.8521368 48.5804348,36.3632479 C49.6543478,34.874359 50.9826087,34.1299145 52.5652174,34.1299145 C52.5652174,34.1299145 52.5652174,34.1299145 52.5652174,34.1299145 Z M78,35.5615385 C78,39.7991453 77.5195652,43.607265 76.5586957,46.9858974 C75.5978261,50.3645299 74.3826087,53.1132479 72.9130435,55.2320513 C71.4434783,57.3508547 69.6347826,59.2119658 67.4869565,60.8153846 C65.3391304,62.4188034 63.3608696,63.592735 61.5521739,64.3371795 C59.7434783,65.0816239 57.6804348,65.6542735 55.3630435,66.0551282 C53.0456522,66.4559829 51.2934783,66.6850427 50.1065217,66.7423077 C48.9195652,66.7995726 47.6478261,66.8282051 46.2913043,66.8282051 C45.9521739,66.8282051 44.9347826,66.8568376 43.2391304,66.9141026 C41.5434783,66.9713675 40.1304348,67 39,67 C37.8695652,67 36.4565217,66.9713675 34.7608696,66.9141026 C33.0652174,66.8568376 32.0478261,66.8282051 31.7086957,66.8282051 C30.3521739,66.8282051 29.0804348,66.7995726 27.8934783,66.7423077 C26.7065217,66.6850427 24.9543478,66.4559829 22.6369565,66.0551282 C20.3195652,65.6542735 18.2565217,65.0816239 16.4478261,64.3371795 C14.6391304,63.592735 12.6608696,62.4188034 10.5130435,60.8153846 C8.36521739,59.2119658 6.55652174,57.3508547 5.08695652,55.2320513 C3.6173913,53.1132479 2.40217391,50.3645299 1.44130435,46.9858974 C0.480434783,43.607265 1.42108547e-14,39.7991453 1.42108547e-14,35.5615385 C1.42108547e-14,29.0333333 2.09130435,23.4786325 6.27391304,18.8974359 C5.82173913,18.6683761 5.79347826,16.3777778 6.18913043,12.025641 C6.58478261,7.67350427 7.5173913,3.66495726 8.98695652,0 C14.1869565,0.572649573 20.6304348,3.55042735 28.3173913,8.93333333 C30.9173913,8.24615385 34.4782609,7.9025641 39,7.9025641 C43.7478261,7.9025641 47.3086957,8.24615385 49.6826087,8.93333333 C53.1869565,6.52820513 56.55,4.58119658 59.7717391,3.09230769 C62.9934783,1.6034188 65.3391304,0.744444444 66.8086957,0.515384615 C66.8086957,0.515384615 69.0130435,0 69.0130435,0 C70.4826087,3.66495726 71.4152174,7.67350427 71.8108696,12.025641 C72.2065217,16.3777778 72.1782609,18.6683761 71.726087,18.8974359 C75.9086957,23.4786325 78,29.0333333 78,35.5615385 Z M39.1695652,58.1811966 C48.5521739,58.1811966 55.6456522,57.0358974 60.45,54.7452991 C65.2543478,52.4547009 67.6565217,47.7589744 67.6565217,40.6581197 C67.6565217,36.5350427 66.1304348,33.0991453 63.0782609,30.3504274 C61.4956522,28.8615385 59.6586957,27.9452991 57.5673913,27.6017094 C55.476087,27.2581197 52.2826087,27.2581197 47.9869565,27.6017094 C43.6913043,27.9452991 40.7521739,28.117094 39.1695652,28.117094 C39.1695652,28.117094 39,28.117094 39,28.117094 C39,28.117094 38.8304348,28.117094 38.8304348,28.117094 C37.0217391,28.117094 34.676087,28.0025641 31.7934783,27.7735043 C28.9108696,27.5444444 26.65,27.4012821 25.0108696,27.3440171 C23.3717391,27.2867521 21.5913043,27.4871795 19.6695652,27.9452991 C17.7478261,28.4034188 16.1652174,29.2051282 14.9217391,30.3504274 C11.9826087,32.9846154 10.5130435,36.4205128 10.5130435,40.6581197 C10.5130435,47.7589744 12.8869565,52.4547009 17.6347826,54.7452991 C22.3826087,57.0358974 29.4478261,58.1811966 38.8304348,58.1811966 C38.8304348,58.1811966 39.1695652,58.1811966 39.1695652,58.1811966 C39.1695652,58.1811966 39.1695652,58.1811966 39.1695652,58.1811966 L39.1695652,58.1811966 Z M25.6043478,34.1299145 C27.073913,34.1299145 28.3456522,34.874359 29.4195652,36.3632479 C30.4934783,37.8521368 31.0304348,39.6846154 31.0304348,41.8606838 C31.0304348,44.0367521 30.4934783,45.8692308 29.4195652,47.3581197 C28.3456522,48.8470085 27.073913,49.591453 25.6043478,49.591453 C24.0217391,49.591453 22.6934783,48.8470085 21.6195652,47.3581197 C20.5456522,45.8692308 20.0086957,44.0367521 20.0086957,41.8606838 C20.0086957,39.6846154 20.5456522,37.8521368 21.6195652,36.3632479 C22.6934783,34.874359 24.0217391,34.1299145 25.6043478,34.1299145 C25.6043478,34.1299145 25.6043478,34.1299145 25.6043478,34.1299145 Z" id="Shape"></path>
                    </g>
                </g>
            </g>
        </g>
    </g>
</svg>